<mxfile host="app.diagrams.net" agent="Mozilla/5.0 (X11; Linux x86_64) AppleWebKit/537.36 (KHTML, like Gecko) Chrome/132.0.0.0 Safari/537.36" version="26.2.14">
  <diagram name="Page-1" id="CG7nVRiO2Gma3aAZzR6_">
    <mxGraphModel dx="750" dy="510" grid="1" gridSize="10" guides="1" tooltips="1" connect="1" arrows="1" fold="1" page="1" pageScale="1" pageWidth="850" pageHeight="1100" math="0" shadow="0">
      <root>
        <mxCell id="0" />
        <mxCell id="1" parent="0" />
        <mxCell id="WcKR49erJZ5EoNqmLGjS-1" value="" style="strokeWidth=1;shadow=0;dashed=0;align=center;html=1;shape=mxgraph.mockup.graphics.rrect;rSize=0;strokeColor=#999999;" vertex="1" parent="1">
          <mxGeometry x="90" y="120" width="600" height="300" as="geometry" />
        </mxCell>
        <mxCell id="WcKR49erJZ5EoNqmLGjS-2" value="#" style="strokeColor=inherit;fillColor=inherit;gradientColor=inherit;strokeWidth=1;shadow=0;dashed=0;align=center;html=1;shape=mxgraph.mockup.graphics.rrect;rSize=0;fontColor=#666666;" vertex="1" parent="WcKR49erJZ5EoNqmLGjS-1">
          <mxGeometry width="20" height="40" as="geometry" />
        </mxCell>
        <mxCell id="WcKR49erJZ5EoNqmLGjS-3" value="Task" style="strokeColor=inherit;fillColor=inherit;gradientColor=inherit;strokeWidth=1;shadow=0;dashed=0;align=center;html=1;shape=mxgraph.mockup.graphics.rrect;rSize=0;fontColor=#666666;" vertex="1" parent="WcKR49erJZ5EoNqmLGjS-1">
          <mxGeometry x="20" width="40" height="40" as="geometry" />
        </mxCell>
        <mxCell id="WcKR49erJZ5EoNqmLGjS-4" value="Start" style="strokeColor=inherit;fillColor=inherit;gradientColor=inherit;strokeWidth=1;shadow=0;dashed=0;align=center;html=1;shape=mxgraph.mockup.graphics.rrect;rSize=0;fontColor=#666666;" vertex="1" parent="WcKR49erJZ5EoNqmLGjS-1">
          <mxGeometry x="60" width="130" height="40" as="geometry" />
        </mxCell>
        <mxCell id="WcKR49erJZ5EoNqmLGjS-5" value="Effort" style="strokeColor=inherit;fillColor=inherit;gradientColor=inherit;strokeWidth=1;shadow=0;dashed=0;align=center;html=1;shape=mxgraph.mockup.graphics.rrect;rSize=0;fontColor=#666666;" vertex="1" parent="WcKR49erJZ5EoNqmLGjS-1">
          <mxGeometry x="190" width="50" height="40" as="geometry" />
        </mxCell>
        <mxCell id="WcKR49erJZ5EoNqmLGjS-6" value="20//10//2014" style="strokeColor=inherit;fillColor=inherit;gradientColor=inherit;strokeWidth=1;shadow=0;dashed=0;align=center;html=1;shape=mxgraph.mockup.graphics.rrect;rSize=0;fontColor=#666666;" vertex="1" parent="WcKR49erJZ5EoNqmLGjS-1">
          <mxGeometry x="240" width="210" height="20" as="geometry" />
        </mxCell>
        <mxCell id="WcKR49erJZ5EoNqmLGjS-7" value="27//10//2014" style="strokeColor=inherit;fillColor=inherit;gradientColor=inherit;strokeWidth=1;shadow=0;dashed=0;align=center;html=1;shape=mxgraph.mockup.graphics.rrect;rSize=0;fontColor=#666666;" vertex="1" parent="WcKR49erJZ5EoNqmLGjS-1">
          <mxGeometry x="450" width="150" height="20" as="geometry" />
        </mxCell>
        <mxCell id="WcKR49erJZ5EoNqmLGjS-8" value="M" style="strokeColor=inherit;fillColor=inherit;gradientColor=inherit;strokeWidth=1;shadow=0;dashed=0;align=center;html=1;shape=mxgraph.mockup.graphics.rrect;rSize=0;;fontColor=#666666;" vertex="1" parent="WcKR49erJZ5EoNqmLGjS-1">
          <mxGeometry x="240" y="20" width="30" height="20" as="geometry" />
        </mxCell>
        <mxCell id="WcKR49erJZ5EoNqmLGjS-9" value="T" style="strokeColor=inherit;fillColor=inherit;gradientColor=inherit;strokeWidth=1;shadow=0;dashed=0;align=center;html=1;shape=mxgraph.mockup.graphics.rrect;rSize=0;fontColor=#666666;" vertex="1" parent="WcKR49erJZ5EoNqmLGjS-1">
          <mxGeometry x="270" y="20" width="30" height="20" as="geometry" />
        </mxCell>
        <mxCell id="WcKR49erJZ5EoNqmLGjS-10" value="W" style="strokeColor=inherit;fillColor=inherit;gradientColor=inherit;strokeWidth=1;shadow=0;dashed=0;align=center;html=1;shape=mxgraph.mockup.graphics.rrect;rSize=0;fontColor=#666666;" vertex="1" parent="WcKR49erJZ5EoNqmLGjS-1">
          <mxGeometry x="300" y="20" width="30" height="20" as="geometry" />
        </mxCell>
        <mxCell id="WcKR49erJZ5EoNqmLGjS-11" value="T" style="strokeColor=inherit;fillColor=inherit;gradientColor=inherit;strokeWidth=1;shadow=0;dashed=0;align=center;html=1;shape=mxgraph.mockup.graphics.rrect;rSize=0;fontColor=#666666;" vertex="1" parent="WcKR49erJZ5EoNqmLGjS-1">
          <mxGeometry x="330" y="20" width="30" height="20" as="geometry" />
        </mxCell>
        <mxCell id="WcKR49erJZ5EoNqmLGjS-12" value="F" style="strokeColor=inherit;fillColor=inherit;gradientColor=inherit;strokeWidth=1;shadow=0;dashed=0;align=center;html=1;shape=mxgraph.mockup.graphics.rrect;rSize=0;fontColor=#666666;" vertex="1" parent="WcKR49erJZ5EoNqmLGjS-1">
          <mxGeometry x="360" y="20" width="30" height="20" as="geometry" />
        </mxCell>
        <mxCell id="WcKR49erJZ5EoNqmLGjS-13" value="S" style="strokeColor=inherit;fillColor=inherit;gradientColor=inherit;strokeWidth=1;shadow=0;dashed=0;align=center;html=1;shape=mxgraph.mockup.graphics.rrect;rSize=0;fontColor=#666666;" vertex="1" parent="WcKR49erJZ5EoNqmLGjS-1">
          <mxGeometry x="390" y="20" width="30" height="20" as="geometry" />
        </mxCell>
        <mxCell id="WcKR49erJZ5EoNqmLGjS-14" value="S" style="strokeColor=inherit;fillColor=inherit;gradientColor=inherit;strokeWidth=1;shadow=0;dashed=0;align=center;html=1;shape=mxgraph.mockup.graphics.rrect;rSize=0;fontColor=#666666;" vertex="1" parent="WcKR49erJZ5EoNqmLGjS-1">
          <mxGeometry x="420" y="20" width="30" height="20" as="geometry" />
        </mxCell>
        <mxCell id="WcKR49erJZ5EoNqmLGjS-15" value="M" style="strokeColor=inherit;fillColor=inherit;gradientColor=inherit;strokeWidth=1;shadow=0;dashed=0;align=center;html=1;shape=mxgraph.mockup.graphics.rrect;rSize=0;fontColor=#666666;" vertex="1" parent="WcKR49erJZ5EoNqmLGjS-1">
          <mxGeometry x="450" y="20" width="30" height="20" as="geometry" />
        </mxCell>
        <mxCell id="WcKR49erJZ5EoNqmLGjS-16" value="T" style="strokeColor=inherit;fillColor=inherit;gradientColor=inherit;strokeWidth=1;shadow=0;dashed=0;align=center;html=1;shape=mxgraph.mockup.graphics.rrect;rSize=0;fontColor=#666666;" vertex="1" parent="WcKR49erJZ5EoNqmLGjS-1">
          <mxGeometry x="480" y="20" width="30" height="20" as="geometry" />
        </mxCell>
        <mxCell id="WcKR49erJZ5EoNqmLGjS-17" value="W" style="strokeColor=inherit;fillColor=inherit;gradientColor=inherit;strokeWidth=1;shadow=0;dashed=0;align=center;html=1;shape=mxgraph.mockup.graphics.rrect;rSize=0;fontColor=#666666;" vertex="1" parent="WcKR49erJZ5EoNqmLGjS-1">
          <mxGeometry x="510" y="20" width="30" height="20" as="geometry" />
        </mxCell>
        <mxCell id="WcKR49erJZ5EoNqmLGjS-18" value="T" style="strokeColor=inherit;fillColor=inherit;gradientColor=inherit;strokeWidth=1;shadow=0;dashed=0;align=center;html=1;shape=mxgraph.mockup.graphics.rrect;rSize=0;fontColor=#666666;" vertex="1" parent="WcKR49erJZ5EoNqmLGjS-1">
          <mxGeometry x="540" y="20" width="30" height="20" as="geometry" />
        </mxCell>
        <mxCell id="WcKR49erJZ5EoNqmLGjS-19" value="F" style="strokeColor=inherit;fillColor=inherit;gradientColor=inherit;strokeWidth=1;shadow=0;dashed=0;align=center;html=1;shape=mxgraph.mockup.graphics.rrect;rSize=0;fontColor=#666666;" vertex="1" parent="WcKR49erJZ5EoNqmLGjS-1">
          <mxGeometry x="570" y="20" width="30" height="20" as="geometry" />
        </mxCell>
        <mxCell id="WcKR49erJZ5EoNqmLGjS-20" value="" style="strokeColor=inherit;fillColor=inherit;gradientColor=inherit;strokeWidth=1;shadow=0;dashed=0;align=center;html=1;shape=mxgraph.mockup.graphics.rrect;rSize=0;fontColor=#666666;" vertex="1" parent="WcKR49erJZ5EoNqmLGjS-1">
          <mxGeometry y="40" width="240" height="260" as="geometry" />
        </mxCell>
        <mxCell id="WcKR49erJZ5EoNqmLGjS-21" value="" style="strokeColor=inherit;fillColor=inherit;gradientColor=inherit;strokeWidth=1;shadow=0;dashed=0;align=center;html=1;shape=mxgraph.mockup.graphics.rrect;rSize=0;fontColor=#666666;" vertex="1" parent="WcKR49erJZ5EoNqmLGjS-1">
          <mxGeometry x="240" y="40" width="60" height="260" as="geometry" />
        </mxCell>
        <mxCell id="WcKR49erJZ5EoNqmLGjS-22" value="" style="strokeColor=inherit;fillColor=inherit;gradientColor=inherit;strokeWidth=1;shadow=0;dashed=0;align=center;html=1;shape=mxgraph.mockup.graphics.rrect;rSize=0;fontColor=#666666;" vertex="1" parent="WcKR49erJZ5EoNqmLGjS-1">
          <mxGeometry x="300" y="40" width="60" height="260" as="geometry" />
        </mxCell>
        <mxCell id="WcKR49erJZ5EoNqmLGjS-23" value="" style="strokeColor=inherit;fillColor=inherit;gradientColor=inherit;strokeWidth=1;shadow=0;dashed=0;align=center;html=1;shape=mxgraph.mockup.graphics.rrect;rSize=0;fontColor=#666666;" vertex="1" parent="WcKR49erJZ5EoNqmLGjS-1">
          <mxGeometry x="360" y="40" width="60" height="260" as="geometry" />
        </mxCell>
        <mxCell id="WcKR49erJZ5EoNqmLGjS-24" value="" style="strokeColor=inherit;fillColor=inherit;gradientColor=inherit;strokeWidth=1;shadow=0;dashed=0;align=center;html=1;shape=mxgraph.mockup.graphics.rrect;rSize=0;fontColor=#666666;" vertex="1" parent="WcKR49erJZ5EoNqmLGjS-1">
          <mxGeometry x="420" y="40" width="60" height="260" as="geometry" />
        </mxCell>
        <mxCell id="WcKR49erJZ5EoNqmLGjS-25" value="" style="strokeColor=inherit;fillColor=inherit;gradientColor=inherit;strokeWidth=1;shadow=0;dashed=0;align=center;html=1;shape=mxgraph.mockup.graphics.rrect;rSize=0;fontColor=#666666;" vertex="1" parent="WcKR49erJZ5EoNqmLGjS-1">
          <mxGeometry x="480" y="40" width="60" height="260" as="geometry" />
        </mxCell>
        <mxCell id="WcKR49erJZ5EoNqmLGjS-26" value="" style="strokeColor=inherit;fillColor=inherit;gradientColor=inherit;strokeWidth=1;shadow=0;dashed=0;align=center;html=1;shape=mxgraph.mockup.graphics.rrect;rSize=0;fontColor=#666666;" vertex="1" parent="WcKR49erJZ5EoNqmLGjS-1">
          <mxGeometry x="540" y="40" width="60" height="260" as="geometry" />
        </mxCell>
        <mxCell id="WcKR49erJZ5EoNqmLGjS-27" value="1" style="strokeWidth=1;shadow=0;dashed=0;align=center;html=1;shape=mxgraph.mockup.graphics.anchor;fontColor=#666666;" vertex="1" parent="WcKR49erJZ5EoNqmLGjS-1">
          <mxGeometry y="40" width="20" height="20" as="geometry" />
        </mxCell>
        <mxCell id="WcKR49erJZ5EoNqmLGjS-28" value="Task 1" style="strokeWidth=1;shadow=0;dashed=0;align=center;html=1;shape=mxgraph.mockup.graphics.anchor;fontColor=#666666;" vertex="1" parent="WcKR49erJZ5EoNqmLGjS-1">
          <mxGeometry x="20" y="40" width="40" height="20" as="geometry" />
        </mxCell>
        <mxCell id="WcKR49erJZ5EoNqmLGjS-29" value="20//10//2014 8:00 AM" style="strokeWidth=1;shadow=0;dashed=0;align=center;html=1;shape=mxgraph.mockup.graphics.anchor;fontColor=#666666;" vertex="1" parent="WcKR49erJZ5EoNqmLGjS-1">
          <mxGeometry x="60" y="40" width="130" height="20" as="geometry" />
        </mxCell>
        <mxCell id="WcKR49erJZ5EoNqmLGjS-30" value="40h" style="strokeWidth=1;shadow=0;dashed=0;align=center;html=1;shape=mxgraph.mockup.graphics.anchor;fontColor=#666666;" vertex="1" parent="WcKR49erJZ5EoNqmLGjS-1">
          <mxGeometry x="190" y="40" width="50" height="20" as="geometry" />
        </mxCell>
        <mxCell id="WcKR49erJZ5EoNqmLGjS-31" value="2" style="strokeWidth=1;shadow=0;dashed=0;align=center;html=1;shape=mxgraph.mockup.graphics.anchor;fontColor=#666666;" vertex="1" parent="WcKR49erJZ5EoNqmLGjS-1">
          <mxGeometry y="60" width="20" height="20" as="geometry" />
        </mxCell>
        <mxCell id="WcKR49erJZ5EoNqmLGjS-32" value="Task 2" style="strokeWidth=1;shadow=0;dashed=0;align=center;html=1;shape=mxgraph.mockup.graphics.anchor;fontColor=#666666;" vertex="1" parent="WcKR49erJZ5EoNqmLGjS-1">
          <mxGeometry x="20" y="60" width="40" height="20" as="geometry" />
        </mxCell>
        <mxCell id="WcKR49erJZ5EoNqmLGjS-33" value="20//10//2014 8:00 AM" style="strokeWidth=1;shadow=0;dashed=0;align=center;html=1;shape=mxgraph.mockup.graphics.anchor;fontColor=#666666;" vertex="1" parent="WcKR49erJZ5EoNqmLGjS-1">
          <mxGeometry x="60" y="60" width="130" height="20" as="geometry" />
        </mxCell>
        <mxCell id="WcKR49erJZ5EoNqmLGjS-34" value="40h" style="strokeWidth=1;shadow=0;dashed=0;align=center;html=1;shape=mxgraph.mockup.graphics.anchor;fontColor=#666666;" vertex="1" parent="WcKR49erJZ5EoNqmLGjS-1">
          <mxGeometry x="190" y="60" width="50" height="20" as="geometry" />
        </mxCell>
        <mxCell id="WcKR49erJZ5EoNqmLGjS-35" value="3" style="strokeWidth=1;shadow=0;dashed=0;align=center;html=1;shape=mxgraph.mockup.graphics.anchor;fontColor=#666666;" vertex="1" parent="WcKR49erJZ5EoNqmLGjS-1">
          <mxGeometry y="80" width="20" height="20" as="geometry" />
        </mxCell>
        <mxCell id="WcKR49erJZ5EoNqmLGjS-36" value="Task 3" style="strokeWidth=1;shadow=0;dashed=0;align=center;html=1;shape=mxgraph.mockup.graphics.anchor;fontColor=#666666;" vertex="1" parent="WcKR49erJZ5EoNqmLGjS-1">
          <mxGeometry x="20" y="80" width="40" height="20" as="geometry" />
        </mxCell>
        <mxCell id="WcKR49erJZ5EoNqmLGjS-37" value="20//10//2014 8:00 AM" style="strokeWidth=1;shadow=0;dashed=0;align=center;html=1;shape=mxgraph.mockup.graphics.anchor;fontColor=#666666;" vertex="1" parent="WcKR49erJZ5EoNqmLGjS-1">
          <mxGeometry x="60" y="80" width="130" height="20" as="geometry" />
        </mxCell>
        <mxCell id="WcKR49erJZ5EoNqmLGjS-38" value="40h" style="strokeWidth=1;shadow=0;dashed=0;align=center;html=1;shape=mxgraph.mockup.graphics.anchor;fontColor=#666666;" vertex="1" parent="WcKR49erJZ5EoNqmLGjS-1">
          <mxGeometry x="190" y="80" width="50" height="20" as="geometry" />
        </mxCell>
        <mxCell id="WcKR49erJZ5EoNqmLGjS-39" value="4" style="strokeWidth=1;shadow=0;dashed=0;align=center;html=1;shape=mxgraph.mockup.graphics.anchor;fontColor=#666666;" vertex="1" parent="WcKR49erJZ5EoNqmLGjS-1">
          <mxGeometry y="100" width="20" height="20" as="geometry" />
        </mxCell>
        <mxCell id="WcKR49erJZ5EoNqmLGjS-40" value="Task 4" style="strokeWidth=1;shadow=0;dashed=0;align=center;html=1;shape=mxgraph.mockup.graphics.anchor;fontColor=#666666;" vertex="1" parent="WcKR49erJZ5EoNqmLGjS-1">
          <mxGeometry x="20" y="100" width="40" height="20" as="geometry" />
        </mxCell>
        <mxCell id="WcKR49erJZ5EoNqmLGjS-41" value="20//10//2014 8:00 AM" style="strokeWidth=1;shadow=0;dashed=0;align=center;html=1;shape=mxgraph.mockup.graphics.anchor;fontColor=#666666;" vertex="1" parent="WcKR49erJZ5EoNqmLGjS-1">
          <mxGeometry x="60" y="100" width="130" height="20" as="geometry" />
        </mxCell>
        <mxCell id="WcKR49erJZ5EoNqmLGjS-42" value="40h" style="strokeWidth=1;shadow=0;dashed=0;align=center;html=1;shape=mxgraph.mockup.graphics.anchor;fontColor=#666666;" vertex="1" parent="WcKR49erJZ5EoNqmLGjS-1">
          <mxGeometry x="190" y="100" width="50" height="20" as="geometry" />
        </mxCell>
        <mxCell id="WcKR49erJZ5EoNqmLGjS-43" value="" style="strokeWidth=1;shadow=0;dashed=0;align=center;html=1;shape=mxgraph.mockup.graphics.rrect;rSize=0;strokeColor=none;fillColor=#aaddff;" vertex="1" parent="WcKR49erJZ5EoNqmLGjS-1">
          <mxGeometry x="250" y="45" width="130" height="10" as="geometry" />
        </mxCell>
        <mxCell id="WcKR49erJZ5EoNqmLGjS-44" value="" style="strokeWidth=1;shadow=0;dashed=0;align=center;html=1;shape=mxgraph.mockup.graphics.rrect;rSize=0;strokeColor=none;fillColor=#aaddff;" vertex="1" parent="WcKR49erJZ5EoNqmLGjS-1">
          <mxGeometry x="250" y="65" width="40" height="10" as="geometry" />
        </mxCell>
        <mxCell id="WcKR49erJZ5EoNqmLGjS-45" value="" style="strokeWidth=1;shadow=0;dashed=0;align=center;html=1;shape=mxgraph.mockup.graphics.rrect;rSize=0;strokeColor=none;fillColor=#aaddff;" vertex="1" parent="WcKR49erJZ5EoNqmLGjS-1">
          <mxGeometry x="280" y="85" width="100" height="10" as="geometry" />
        </mxCell>
        <mxCell id="WcKR49erJZ5EoNqmLGjS-46" value="" style="strokeWidth=1;shadow=0;dashed=0;align=center;html=1;shape=mxgraph.mockup.graphics.rrect;rSize=0;strokeColor=none;fillColor=#aaddff;" vertex="1" parent="WcKR49erJZ5EoNqmLGjS-1">
          <mxGeometry x="340" y="105" width="70" height="10" as="geometry" />
        </mxCell>
      </root>
    </mxGraphModel>
  </diagram>
</mxfile>
